<svg xmlns="http://www.w3.org/2000/svg" xmlns:xlink="http://www.w3.org/1999/xlink" width="500" zoomAndPan="magnify" viewBox="0 0 375 374.999991" height="500" preserveAspectRatio="xMidYMid meet" version="1.0"><defs><g/><clipPath id="8bc120b7c2"><path d="M 108.015625 25.855469 L 168 25.855469 L 168 194 L 108.015625 194 Z M 108.015625 25.855469 " clip-rule="nonzero"/></clipPath><clipPath id="07ff012471"><path d="M 176 58 L 237 58 L 237 226.292969 L 176 226.292969 Z M 176 58 " clip-rule="nonzero"/></clipPath><clipPath id="1d18625cdf"><path d="M 257 32 L 267.6875 32 L 267.6875 43 L 257 43 Z M 257 32 " clip-rule="nonzero"/></clipPath></defs><g clip-path="url(#8bc120b7c2)"><path fill="#c6340a" d="M 108.070312 120.1875 L 108.070312 99.246094 C 112.332031 99.015625 115.542969 98.375 117.703125 97.324219 C 119.863281 96.277344 121.730469 94.519531 123.308594 92.046875 C 124.882812 89.574219 125.964844 86.476562 126.546875 82.753906 C 127.011719 79.960938 127.25 75.101562 127.25 68.179688 C 127.25 56.894531 127.773438 49.027344 128.824219 44.578125 C 129.875 40.128906 131.769531 36.546875 134.515625 33.84375 C 137.261719 31.136719 141.257812 29 146.511719 27.429688 C 150.074219 26.382812 155.679688 25.859375 163.328125 25.859375 L 167.96875 25.859375 L 167.96875 46.714844 C 161.488281 46.714844 157.328125 47.078125 155.492188 47.804688 C 153.652344 48.535156 152.292969 49.636719 151.417969 51.121094 C 150.542969 52.605469 150.105469 55.148438 150.105469 58.757812 C 150.105469 62.421875 149.839844 69.375 149.316406 79.609375 C 149.023438 85.371094 148.265625 90.039062 147.039062 93.617188 C 145.8125 97.195312 144.25 100.148438 142.355469 102.472656 C 140.457031 104.800781 137.550781 107.214844 133.640625 109.71875 C 137.085938 111.695312 139.902344 114.007812 142.09375 116.652344 C 144.28125 119.300781 145.957031 122.515625 147.125 126.296875 C 148.292969 130.078125 149.054688 135.140625 149.402344 141.476562 C 149.8125 151.136719 150.015625 157.300781 150.015625 159.976562 C 150.015625 163.816406 150.484375 166.492188 151.417969 168.003906 C 152.351562 169.519531 153.765625 170.667969 155.664062 171.453125 C 157.5625 172.238281 161.664062 172.628906 167.96875 172.628906 L 167.96875 193.570312 L 163.328125 193.570312 C 155.445312 193.570312 149.402344 192.945312 145.199219 191.695312 C 140.996094 190.445312 137.449219 188.367188 134.558594 185.457031 C 131.671875 182.546875 129.730469 178.953125 128.738281 174.679688 C 127.742188 170.40625 127.25 163.671875 127.25 154.480469 C 127.25 143.777344 126.78125 136.824219 125.847656 133.625 C 124.5625 128.972656 122.621094 125.640625 120.023438 123.632812 C 117.425781 121.625 113.441406 120.476562 108.070312 120.1875 " fill-opacity="1" fill-rule="nonzero"/></g><path fill="#beafe3" d="M 240.925781 69.304688 L 227.21875 69.304688 L 227.21875 55.648438 L 240.925781 55.648438 L 240.925781 69.304688 " fill-opacity="1" fill-rule="nonzero"/><path fill="#beafe3" d="M 237.691406 96.617188 L 227.21875 96.617188 L 227.21875 86.183594 L 237.691406 86.183594 L 237.691406 96.617188 " fill-opacity="1" fill-rule="nonzero"/><g clip-path="url(#07ff012471)"><path fill="#beafe3" d="M 197.816406 79.742188 L 197.816406 69.304688 L 208.289062 69.304688 L 208.289062 79.742188 Z M 224.453125 128.527344 C 221.824219 126.519531 219.871094 123.191406 218.585938 118.535156 C 217.878906 115.910156 217.457031 110.878906 217.320312 103.449219 L 208.289062 103.449219 L 208.289062 89.789062 L 217.121094 89.789062 C 216.902344 84.523438 216.441406 80.421875 215.738281 77.480469 C 214.71875 73.203125 212.777344 69.597656 209.917969 66.660156 C 207.054688 63.722656 203.523438 61.640625 199.320312 60.417969 C 195.117188 59.199219 189.074219 58.589844 181.191406 58.589844 L 176.550781 58.589844 L 176.550781 79.441406 C 183.148438 79.441406 187.394531 79.835938 189.292969 80.621094 C 191.191406 81.40625 192.503906 82.527344 193.234375 83.980469 C 193.964844 85.433594 194.355469 88.34375 194.417969 92.707031 C 194.707031 106.550781 195.171875 115.511719 195.816406 119.582031 C 196.808594 125.515625 198.675781 130.402344 201.421875 134.242188 C 203.40625 136.917969 206.558594 139.652344 210.878906 142.445312 C 207.550781 144.363281 204.820312 146.589844 202.691406 149.121094 C 200.558594 151.652344 198.851562 154.734375 197.566406 158.371094 C 196.285156 162.003906 195.496094 166.847656 195.203125 172.898438 C 194.738281 182.90625 194.488281 189.679688 194.460938 193.230469 C 194.429688 196.777344 193.964844 199.292969 193.058594 200.777344 C 192.152344 202.261719 190.738281 203.394531 188.8125 204.179688 C 186.882812 204.964844 182.796875 205.359375 176.550781 205.359375 L 176.550781 226.300781 L 181.191406 226.300781 C 188.839844 226.300781 194.445312 225.777344 198.003906 224.730469 C 203.320312 223.160156 207.34375 221.023438 210.09375 218.316406 C 212.835938 215.613281 214.71875 212.019531 215.738281 207.539062 C 216.761719 203.058594 217.273438 195.179688 217.273438 183.890625 C 217.273438 177.027344 217.503906 172.199219 217.972656 169.40625 C 218.613281 165.683594 219.710938 162.585938 221.257812 160.113281 C 222.800781 157.640625 224.65625 155.882812 226.816406 154.835938 C 228.976562 153.789062 232.1875 153.148438 236.449219 152.914062 L 236.449219 131.972656 C 231.078125 131.683594 227.082031 130.53125 224.453125 128.527344 " fill-opacity="1" fill-rule="nonzero"/></g><g clip-path="url(#1d18625cdf)"><path fill="#beafe3" d="M 267.648438 42.78125 L 257.179688 42.78125 L 257.179688 32.34375 L 267.648438 32.34375 L 267.648438 42.78125 " fill-opacity="1" fill-rule="nonzero"/></g><path fill="#beafe3" d="M 215.140625 55.648438 L 195.59375 55.648438 L 195.59375 36.167969 L 215.140625 36.167969 L 215.140625 55.648438 " fill-opacity="1" fill-rule="nonzero"/><g fill="#c6340a" fill-opacity="1"><g transform="translate(18.298092, 324.911967)"><g><path d="M 6.03125 -53.859375 L 17.765625 -53.859375 L 17.765625 -11.015625 L 36.421875 -11.015625 L 36.421875 0 L 6.03125 0 Z M 6.03125 -53.859375 "/></g></g></g><g fill="#c6340a" fill-opacity="1"><g transform="translate(72.162471, 324.911967)"><g><path d="M 30.625 1.125 C 26.664062 1.125 22.992188 0.398438 19.609375 -1.046875 C 16.234375 -2.492188 13.300781 -4.472656 10.8125 -6.984375 C 8.320312 -9.503906 6.363281 -12.46875 4.9375 -15.875 C 3.519531 -19.28125 2.8125 -22.96875 2.8125 -26.9375 C 2.8125 -30.894531 3.519531 -34.585938 4.9375 -38.015625 C 6.363281 -41.453125 8.320312 -44.425781 10.8125 -46.9375 C 13.300781 -49.457031 16.234375 -51.425781 19.609375 -52.84375 C 22.992188 -54.269531 26.664062 -54.984375 30.625 -54.984375 C 34.539062 -54.984375 38.195312 -54.269531 41.59375 -52.84375 C 45 -51.425781 47.945312 -49.457031 50.4375 -46.9375 C 52.9375 -44.425781 54.894531 -41.453125 56.3125 -38.015625 C 57.726562 -34.585938 58.4375 -30.894531 58.4375 -26.9375 C 58.4375 -22.96875 57.726562 -19.28125 56.3125 -15.875 C 54.894531 -12.46875 52.9375 -9.503906 50.4375 -6.984375 C 47.945312 -4.472656 45 -2.492188 41.59375 -1.046875 C 38.195312 0.398438 34.539062 1.125 30.625 1.125 Z M 30.625 -10.296875 C 32.875 -10.296875 34.9375 -10.707031 36.8125 -11.53125 C 38.6875 -12.363281 40.304688 -13.53125 41.671875 -15.03125 C 43.046875 -16.53125 44.117188 -18.296875 44.890625 -20.328125 C 45.671875 -22.367188 46.0625 -24.570312 46.0625 -26.9375 C 46.0625 -29.289062 45.671875 -31.484375 44.890625 -33.515625 C 44.117188 -35.554688 43.046875 -37.3125 41.671875 -38.78125 C 40.304688 -40.257812 38.6875 -41.425781 36.8125 -42.28125 C 34.9375 -43.144531 32.875 -43.578125 30.625 -43.578125 C 28.375 -43.578125 26.3125 -43.144531 24.4375 -42.28125 C 22.5625 -41.425781 20.941406 -40.257812 19.578125 -38.78125 C 18.210938 -37.3125 17.140625 -35.554688 16.359375 -33.515625 C 15.578125 -31.484375 15.1875 -29.289062 15.1875 -26.9375 C 15.1875 -24.570312 15.578125 -22.367188 16.359375 -20.328125 C 17.140625 -18.296875 18.210938 -16.539062 19.578125 -15.0625 C 20.941406 -13.59375 22.5625 -12.429688 24.4375 -11.578125 C 26.3125 -10.722656 28.375 -10.296875 30.625 -10.296875 Z M 30.625 -10.296875 "/></g></g></g><g fill="#c6340a" fill-opacity="1"><g transform="translate(148.456607, 324.911967)"><g><path d="M 3.21875 -6.109375 L 29.421875 -42.84375 L 4.09375 -42.84375 L 4.09375 -53.859375 L 47.265625 -53.859375 L 47.265625 -47.671875 L 21.0625 -11.015625 L 47.515625 -11.015625 L 47.515625 0 L 3.21875 0 Z M 3.21875 -6.109375 "/></g></g></g><g fill="#c6340a" fill-opacity="1"><g transform="translate(214.219203, 324.911967)"><g><path d="M 6.03125 -53.859375 L 17.765625 -53.859375 L 17.765625 0 L 6.03125 0 Z M 6.03125 -53.859375 "/></g></g></g><g fill="#c6340a" fill-opacity="1"><g transform="translate(253.050009, 324.911967)"><g><path d="M 6.03125 -53.859375 L 36.8125 -53.859375 L 36.8125 -42.84375 L 17.765625 -42.84375 L 17.765625 -32.953125 L 31.671875 -32.953125 L 31.671875 -21.953125 L 17.765625 -21.953125 L 17.765625 -11.015625 L 37.21875 -11.015625 L 37.21875 0 L 6.03125 0 Z M 6.03125 -53.859375 "/></g></g></g><g fill="#c6340a" fill-opacity="1"><g transform="translate(309.326195, 324.911967)"><g><path d="M 6.03125 -53.859375 L 22.90625 -53.859375 C 25.695312 -53.859375 28.285156 -53.429688 30.671875 -52.578125 C 33.054688 -51.722656 35.101562 -50.515625 36.8125 -48.953125 C 38.53125 -47.398438 39.867188 -45.550781 40.828125 -43.40625 C 41.796875 -41.269531 42.28125 -38.941406 42.28125 -36.421875 C 42.28125 -33.203125 41.503906 -30.289062 39.953125 -27.6875 C 38.398438 -25.09375 36.253906 -23.070312 33.515625 -21.625 L 46.140625 0 L 32.484375 0 L 22.03125 -18.890625 L 17.765625 -18.890625 L 17.765625 0 L 6.03125 0 Z M 22.34375 -29.265625 C 24.863281 -29.265625 26.859375 -29.894531 28.328125 -31.15625 C 29.804688 -32.414062 30.546875 -34.144531 30.546875 -36.34375 C 30.546875 -38.53125 29.796875 -40.160156 28.296875 -41.234375 C 26.796875 -42.304688 24.8125 -42.84375 22.34375 -42.84375 L 17.765625 -42.84375 L 17.765625 -29.265625 Z M 22.34375 -29.265625 "/></g></g></g></svg>