<svg xmlns="http://www.w3.org/2000/svg" xmlns:xlink="http://www.w3.org/1999/xlink" width="432" zoomAndPan="magnify" viewBox="0 0 324 182.249993" height="243" preserveAspectRatio="xMidYMid meet" version="1.0"><defs><g/><clipPath id="f528976449"><path d="M 0.664062 0 L 323.335938 0 L 323.335938 181.503906 L 0.664062 181.503906 Z M 0.664062 0 " clip-rule="nonzero"/></clipPath><clipPath id="350d561ec2"><path d="M 88.683594 57.269531 L 235.082031 57.269531 L 235.082031 108.0625 L 88.683594 108.0625 Z M 88.683594 57.269531 " clip-rule="nonzero"/></clipPath></defs><g clip-path="url(#f528976449)"><path fill="#ffffff" d="M 0.664062 0 L 323.335938 0 L 323.335938 188.972656 L 0.664062 188.972656 Z M 0.664062 0 " fill-opacity="1" fill-rule="nonzero"/><path fill="#ffffff" d="M 0.664062 0 L 323.335938 0 L 323.335938 181.503906 L 0.664062 181.503906 Z M 0.664062 0 " fill-opacity="1" fill-rule="nonzero"/><path fill="#ffd230" d="M 0.664062 0 L 323.335938 0 L 323.335938 181.503906 L 0.664062 181.503906 Z M 0.664062 0 " fill-opacity="1" fill-rule="nonzero"/></g><g clip-path="url(#350d561ec2)"><path fill="#000000" d="M 231.792969 73.5625 C 231.730469 73.269531 231.671875 72.980469 231.589844 72.695312 L 231.339844 71.859375 C 231.207031 71.308594 230.957031 70.792969 230.789062 70.28125 C 230.339844 69.277344 229.867188 68.339844 229.296875 67.46875 C 228.703125 66.613281 228.09375 65.792969 227.367188 65.066406 C 225.929688 63.609375 224.242188 62.398438 222.242188 61.511719 L 221.863281 61.332031 L 221.476562 61.1875 C 221.214844 61.09375 220.949219 60.984375 220.683594 60.886719 C 220.136719 60.738281 219.578125 60.519531 218.988281 60.390625 C 218.402344 60.242188 217.796875 60.125 217.160156 60.019531 C 216.527344 59.917969 215.867188 59.84375 215.160156 59.761719 C 216.183594 58.785156 217.480469 58.125 218.867188 57.710938 C 219.5625 57.5 220.28125 57.414062 221.015625 57.316406 C 221.386719 57.273438 221.753906 57.289062 222.125 57.28125 L 222.6875 57.28125 C 222.875 57.289062 223.058594 57.316406 223.246094 57.332031 C 226.242188 57.609375 229.160156 59.070312 231.296875 61.269531 C 232.378906 62.367188 233.226562 63.671875 233.878906 65.046875 C 234.507812 66.4375 234.867188 67.933594 234.996094 69.421875 C 235.007812 69.792969 235 70.171875 235 70.539062 C 234.996094 70.722656 235 70.90625 234.984375 71.089844 C 234.96875 71.273438 234.9375 71.457031 234.914062 71.640625 C 234.859375 72.003906 234.828125 72.367188 234.75 72.71875 C 234.667969 73.074219 234.574219 73.425781 234.464844 73.769531 C 234.003906 75.136719 233.304688 76.40625 232.296875 77.394531 C 232.191406 75.992188 232.054688 74.742188 231.792969 73.5625 Z M 91.984375 73.5625 C 92.046875 73.269531 92.109375 72.980469 92.1875 72.695312 L 92.4375 71.859375 C 92.574219 71.308594 92.820312 70.792969 92.992188 70.28125 C 93.441406 69.277344 93.910156 68.339844 94.480469 67.46875 C 95.074219 66.613281 95.6875 65.792969 96.414062 65.066406 C 97.851562 63.609375 99.539062 62.398438 101.539062 61.511719 L 101.914062 61.332031 L 102.304688 61.1875 C 102.566406 61.09375 102.828125 60.984375 103.097656 60.886719 C 103.640625 60.738281 104.203125 60.519531 104.789062 60.390625 C 105.375 60.242188 105.984375 60.125 106.617188 60.019531 C 107.253906 59.917969 107.914062 59.84375 108.617188 59.761719 C 107.597656 58.785156 106.300781 58.125 104.914062 57.710938 C 104.21875 57.5 103.5 57.414062 102.761719 57.316406 C 102.394531 57.273438 102.027344 57.289062 101.65625 57.28125 L 101.09375 57.28125 C 100.90625 57.289062 100.722656 57.316406 100.535156 57.332031 C 97.539062 57.609375 94.617188 59.070312 92.480469 61.269531 C 91.402344 62.367188 90.554688 63.671875 89.902344 65.046875 C 89.269531 66.4375 88.910156 67.933594 88.785156 69.421875 C 88.769531 69.792969 88.78125 70.171875 88.78125 70.539062 C 88.785156 70.722656 88.777344 70.90625 88.792969 71.089844 C 88.8125 71.273438 88.839844 71.457031 88.863281 71.640625 C 88.917969 72.003906 88.953125 72.367188 89.03125 72.71875 C 89.113281 73.074219 89.203125 73.425781 89.316406 73.769531 C 89.773438 75.136719 90.472656 76.40625 91.484375 77.394531 C 91.589844 75.992188 91.726562 74.742188 91.984375 73.5625 Z M 224.210938 63.863281 C 223.769531 64.476562 223.324219 65.085938 222.863281 65.691406 L 222.175781 66.601562 L 221.832031 67.058594 L 221.46875 67.496094 L 219.980469 69.230469 L 219.230469 70.097656 L 218.433594 70.917969 C 217.378906 72.023438 216.3125 73.125 215.167969 74.144531 L 213.460938 75.695312 C 212.875 76.1875 212.277344 76.671875 211.683594 77.160156 C 210.136719 78.417969 203.578125 85.59375 203.175781 86.074219 C 202.789062 86.566406 202.382812 87.046875 201.988281 87.539062 C 201.589844 88.027344 201.191406 88.515625 200.757812 88.976562 C 197.40625 92.746094 193.523438 96.113281 189.230469 98.941406 C 188.691406 99.292969 188.160156 99.652344 187.613281 99.992188 L 185.941406 100.960938 C 184.832031 101.625 183.660156 102.175781 182.496094 102.75 C 180.171875 103.898438 177.730469 104.804688 175.25 105.621094 C 174.636719 105.851562 173.996094 105.988281 173.367188 106.164062 L 171.46875 106.664062 C 170.191406 106.933594 168.910156 107.191406 167.625 107.425781 C 167.613281 107.425781 167.601562 107.429688 167.589844 107.429688 L 165.652344 107.671875 C 165 107.738281 164.351562 107.855469 163.691406 107.875 L 161.722656 107.988281 L 160.734375 108.046875 C 160.40625 108.058594 160.078125 108.050781 159.746094 108.046875 L 157.773438 108.007812 C 157.441406 107.996094 157.113281 108.003906 156.785156 107.976562 L 155.800781 107.894531 C 154.488281 107.773438 153.171875 107.703125 151.875 107.457031 L 149.929688 107.132812 C 149.28125 107.027344 148.648438 106.847656 148.007812 106.703125 L 146.089844 106.25 C 145.457031 106.085938 144.835938 105.863281 144.210938 105.667969 L 142.34375 105.066406 C 141.730469 104.835938 141.128906 104.589844 140.519531 104.347656 C 139.914062 104.109375 139.308594 103.871094 138.707031 103.617188 C 138.117188 103.339844 137.535156 103.050781 136.953125 102.765625 L 135.207031 101.902344 C 134.636719 101.597656 134.078125 101.269531 133.519531 100.941406 L 131.855469 99.953125 C 131.300781 99.625 130.78125 99.238281 130.246094 98.882812 C 129.183594 98.160156 128.117188 97.445312 127.136719 96.625 L 125.636719 95.429688 L 124.894531 94.828125 C 124.652344 94.621094 124.425781 94.398438 124.191406 94.183594 C 123.261719 93.316406 122.308594 92.480469 121.414062 91.585938 L 118.828125 88.824219 L 118.523438 88.484375 C 118.515625 88.476562 118.507812 88.472656 118.5 88.464844 L 118.210938 88.109375 L 117.617188 87.378906 C 117.21875 86.894531 109.40625 78.195312 107.902344 76.960938 L 107.007812 76.234375 L 106.5625 75.871094 L 106.136719 75.488281 L 104.4375 73.941406 L 102.753906 72.390625 C 102.199219 71.863281 101.6875 71.292969 101.15625 70.746094 L 99.582031 69.09375 L 98.804688 68.261719 L 98.066406 67.390625 C 98.054688 67.375 98.039062 67.359375 98.027344 67.34375 C 97.59375 66.808594 98.269531 66.097656 98.828125 66.5 C 98.839844 66.511719 98.851562 66.519531 98.863281 66.527344 L 99.765625 67.199219 L 100.699219 67.828125 L 102.550781 69.09375 C 103.171875 69.511719 103.773438 69.945312 104.398438 70.355469 L 106.292969 71.535156 L 108.171875 72.722656 L 108.625 73.011719 C 108.632812 73.015625 108.644531 73.019531 108.652344 73.027344 L 109.121094 73.289062 L 110.089844 73.835938 C 115.195312 76.796875 120.457031 79.390625 125.902344 81.414062 C 136.769531 85.519531 148.234375 87.601562 159.722656 87.558594 C 171.207031 87.507812 182.707031 85.4375 193.617188 81.414062 C 204.542969 77.40625 214.835938 71.523438 224.210938 63.863281 " fill-opacity="1" fill-rule="nonzero"/></g><g fill="#000000" fill-opacity="1"><g transform="translate(90.618315, 123.952119)"><g><path d="M 4.125 -3.84375 L 1.828125 -3.84375 L 1.828125 -3.15625 L 3.9375 -3.15625 L 3.9375 -1.9375 L 1.828125 -1.9375 L 1.828125 -1.21875 L 4.171875 -1.21875 L 4.09375 0 L 0.421875 0 L 0.421875 -5.0625 L 4.125 -5.0625 Z M 4.125 -3.84375 "/></g></g></g><g fill="#000000" fill-opacity="1"><g transform="translate(97.895754, 123.952119)"><g><path d="M 0.4375 0 L 0.59375 -5.0625 L 1.75 -5.0625 L 3.453125 -1.765625 L 5.109375 -5.0625 L 6.28125 -5.0625 L 6.390625 0 L 5.015625 0 L 4.96875 -2.109375 L 3.890625 0 L 2.890625 0 L 1.8125 -2.078125 L 1.75 0 Z M 0.4375 0 "/></g></g></g><g fill="#000000" fill-opacity="1"><g transform="translate(107.767181, 123.952119)"><g><path d="M 2.828125 0.078125 C 2.273438 0.078125 1.800781 -0.0195312 1.40625 -0.21875 C 1.007812 -0.414062 0.707031 -0.703125 0.5 -1.078125 C 0.289062 -1.453125 0.1875 -1.90625 0.1875 -2.4375 C 0.1875 -2.976562 0.300781 -3.445312 0.53125 -3.84375 C 0.757812 -4.25 1.078125 -4.5625 1.484375 -4.78125 C 1.898438 -5.007812 2.378906 -5.125 2.921875 -5.125 C 3.421875 -5.125 3.851562 -5.019531 4.21875 -4.8125 C 4.59375 -4.601562 4.882812 -4.3125 5.09375 -3.9375 C 5.300781 -3.570312 5.40625 -3.132812 5.40625 -2.625 C 5.40625 -2.09375 5.296875 -1.625 5.078125 -1.21875 C 4.867188 -0.820312 4.566406 -0.507812 4.171875 -0.28125 C 3.785156 -0.0507812 3.335938 0.0664062 2.828125 0.078125 Z M 2.78125 -1.171875 C 3.144531 -1.171875 3.429688 -1.300781 3.640625 -1.5625 C 3.859375 -1.820312 3.96875 -2.164062 3.96875 -2.59375 C 3.96875 -2.988281 3.867188 -3.300781 3.671875 -3.53125 C 3.472656 -3.769531 3.203125 -3.890625 2.859375 -3.890625 C 2.617188 -3.890625 2.40625 -3.828125 2.21875 -3.703125 C 2.03125 -3.578125 1.882812 -3.410156 1.78125 -3.203125 C 1.675781 -2.992188 1.625 -2.75 1.625 -2.46875 C 1.625 -2.0625 1.726562 -1.742188 1.9375 -1.515625 C 2.144531 -1.285156 2.425781 -1.171875 2.78125 -1.171875 Z M 2.78125 -1.171875 "/></g></g></g><g fill="#000000" fill-opacity="1"><g transform="translate(116.405751, 123.952119)"><g><path d="M 4.578125 -5.0625 L 4.375 -3.8125 L 2.890625 -3.8125 L 2.890625 0 L 1.46875 0 L 1.46875 -3.8125 L -0.109375 -3.8125 L -0.109375 -5.0625 Z M 4.578125 -5.0625 "/></g></g></g><g fill="#000000" fill-opacity="1"><g transform="translate(123.797208, 123.952119)"><g><path d="M 0.421875 0 L 0.421875 -5.0625 L 1.859375 -5.0625 L 1.859375 0 Z M 0.421875 0 "/></g></g></g><g fill="#000000" fill-opacity="1"><g transform="translate(129.114898, 123.952119)"><g><path d="M 2.828125 0.078125 C 2.273438 0.078125 1.800781 -0.0195312 1.40625 -0.21875 C 1.007812 -0.414062 0.707031 -0.703125 0.5 -1.078125 C 0.289062 -1.453125 0.1875 -1.90625 0.1875 -2.4375 C 0.1875 -2.976562 0.300781 -3.445312 0.53125 -3.84375 C 0.757812 -4.25 1.078125 -4.5625 1.484375 -4.78125 C 1.898438 -5.007812 2.378906 -5.125 2.921875 -5.125 C 3.421875 -5.125 3.851562 -5.019531 4.21875 -4.8125 C 4.59375 -4.601562 4.882812 -4.3125 5.09375 -3.9375 C 5.300781 -3.570312 5.40625 -3.132812 5.40625 -2.625 C 5.40625 -2.09375 5.296875 -1.625 5.078125 -1.21875 C 4.867188 -0.820312 4.566406 -0.507812 4.171875 -0.28125 C 3.785156 -0.0507812 3.335938 0.0664062 2.828125 0.078125 Z M 2.78125 -1.171875 C 3.144531 -1.171875 3.429688 -1.300781 3.640625 -1.5625 C 3.859375 -1.820312 3.96875 -2.164062 3.96875 -2.59375 C 3.96875 -2.988281 3.867188 -3.300781 3.671875 -3.53125 C 3.472656 -3.769531 3.203125 -3.890625 2.859375 -3.890625 C 2.617188 -3.890625 2.40625 -3.828125 2.21875 -3.703125 C 2.03125 -3.578125 1.882812 -3.410156 1.78125 -3.203125 C 1.675781 -2.992188 1.625 -2.75 1.625 -2.46875 C 1.625 -2.0625 1.726562 -1.742188 1.9375 -1.515625 C 2.144531 -1.285156 2.425781 -1.171875 2.78125 -1.171875 Z M 2.78125 -1.171875 "/></g></g></g><g fill="#000000" fill-opacity="1"><g transform="translate(137.753468, 123.952119)"><g><path d="M 3.65625 -5.0625 L 5.015625 -5.0625 L 5.015625 0 L 3.75 0 L 1.796875 -2.71875 L 1.796875 0 L 0.421875 0 L 0.421875 -5.0625 L 1.703125 -5.0625 L 3.65625 -2.34375 Z M 3.65625 -5.0625 "/></g></g></g><g fill="#000000" fill-opacity="1"><g transform="translate(146.242383, 123.952119)"><g><path d="M 2.125 0.078125 C 1.488281 0.078125 0.992188 -0.0546875 0.640625 -0.328125 C 0.285156 -0.597656 0.0820312 -0.992188 0.03125 -1.515625 L 1.359375 -1.703125 C 1.367188 -1.523438 1.445312 -1.378906 1.59375 -1.265625 C 1.738281 -1.160156 1.929688 -1.109375 2.171875 -1.109375 C 2.609375 -1.109375 2.828125 -1.222656 2.828125 -1.453125 C 2.828125 -1.554688 2.765625 -1.640625 2.640625 -1.703125 C 2.523438 -1.765625 2.328125 -1.828125 2.046875 -1.890625 C 1.460938 -2.035156 1.03125 -2.226562 0.75 -2.46875 C 0.476562 -2.707031 0.34375 -3.039062 0.34375 -3.46875 C 0.351562 -3.800781 0.441406 -4.085938 0.609375 -4.328125 C 0.773438 -4.578125 1.007812 -4.769531 1.3125 -4.90625 C 1.625 -5.050781 1.988281 -5.125 2.40625 -5.125 C 2.90625 -5.125 3.320312 -4.992188 3.65625 -4.734375 C 3.988281 -4.484375 4.175781 -4.140625 4.21875 -3.703125 L 2.984375 -3.484375 C 2.953125 -3.617188 2.875 -3.726562 2.75 -3.8125 C 2.632812 -3.90625 2.492188 -3.953125 2.328125 -3.953125 C 2.160156 -3.953125 2.023438 -3.921875 1.921875 -3.859375 C 1.828125 -3.796875 1.78125 -3.707031 1.78125 -3.59375 C 1.78125 -3.5 1.828125 -3.414062 1.921875 -3.34375 C 2.023438 -3.269531 2.210938 -3.195312 2.484375 -3.125 C 2.878906 -3.03125 3.207031 -2.921875 3.46875 -2.796875 C 3.726562 -2.679688 3.925781 -2.523438 4.0625 -2.328125 C 4.195312 -2.140625 4.265625 -1.894531 4.265625 -1.59375 C 4.265625 -1.257812 4.175781 -0.96875 4 -0.71875 C 3.820312 -0.46875 3.570312 -0.269531 3.25 -0.125 C 2.925781 0.0078125 2.550781 0.078125 2.125 0.078125 Z M 2.125 0.078125 "/></g></g></g><g fill="#000000" fill-opacity="1"><g transform="translate(153.648096, 123.952119)"><g/></g></g><g fill="#000000" fill-opacity="1"><g transform="translate(158.55246, 123.952119)"><g><path d="M 3.9375 -3.84375 L 1.828125 -3.84375 L 1.828125 -3.078125 L 3.75 -3.078125 L 3.75 -1.859375 L 1.828125 -1.859375 L 1.828125 0 L 0.421875 0 L 0.421875 -5.0625 L 3.9375 -5.0625 Z M 3.9375 -3.84375 "/></g></g></g><g fill="#000000" fill-opacity="1"><g transform="translate(165.523467, 123.952119)"><g><path d="M 0.421875 0 L 0.421875 -5.0625 L 1.859375 -5.0625 L 1.859375 -1.234375 L 3.96875 -1.234375 L 3.875 0 Z M 0.421875 0 "/></g></g></g><g fill="#000000" fill-opacity="1"><g transform="translate(172.494473, 123.952119)"><g><path d="M -0.28125 0 L 1.953125 -5.0625 L 3.140625 -5.0625 L 5.28125 0 L 3.84375 0 L 3.484375 -0.90625 L 1.53125 -0.90625 L 1.15625 0 Z M 2.015625 -2.078125 L 3.015625 -2.078125 L 2.53125 -3.3125 Z M 2.015625 -2.078125 "/></g></g></g><g fill="#000000" fill-opacity="1"><g transform="translate(180.570066, 123.952119)"><g><path d="M 2.125 0.078125 C 1.488281 0.078125 0.992188 -0.0546875 0.640625 -0.328125 C 0.285156 -0.597656 0.0820312 -0.992188 0.03125 -1.515625 L 1.359375 -1.703125 C 1.367188 -1.523438 1.445312 -1.378906 1.59375 -1.265625 C 1.738281 -1.160156 1.929688 -1.109375 2.171875 -1.109375 C 2.609375 -1.109375 2.828125 -1.222656 2.828125 -1.453125 C 2.828125 -1.554688 2.765625 -1.640625 2.640625 -1.703125 C 2.523438 -1.765625 2.328125 -1.828125 2.046875 -1.890625 C 1.460938 -2.035156 1.03125 -2.226562 0.75 -2.46875 C 0.476562 -2.707031 0.34375 -3.039062 0.34375 -3.46875 C 0.351562 -3.800781 0.441406 -4.085938 0.609375 -4.328125 C 0.773438 -4.578125 1.007812 -4.769531 1.3125 -4.90625 C 1.625 -5.050781 1.988281 -5.125 2.40625 -5.125 C 2.90625 -5.125 3.320312 -4.992188 3.65625 -4.734375 C 3.988281 -4.484375 4.175781 -4.140625 4.21875 -3.703125 L 2.984375 -3.484375 C 2.953125 -3.617188 2.875 -3.726562 2.75 -3.8125 C 2.632812 -3.90625 2.492188 -3.953125 2.328125 -3.953125 C 2.160156 -3.953125 2.023438 -3.921875 1.921875 -3.859375 C 1.828125 -3.796875 1.78125 -3.707031 1.78125 -3.59375 C 1.78125 -3.5 1.828125 -3.414062 1.921875 -3.34375 C 2.023438 -3.269531 2.210938 -3.195312 2.484375 -3.125 C 2.878906 -3.03125 3.207031 -2.921875 3.46875 -2.796875 C 3.726562 -2.679688 3.925781 -2.523438 4.0625 -2.328125 C 4.195312 -2.140625 4.265625 -1.894531 4.265625 -1.59375 C 4.265625 -1.257812 4.175781 -0.96875 4 -0.71875 C 3.820312 -0.46875 3.570312 -0.269531 3.25 -0.125 C 2.925781 0.0078125 2.550781 0.078125 2.125 0.078125 Z M 2.125 0.078125 "/></g></g></g><g fill="#000000" fill-opacity="1"><g transform="translate(187.975779, 123.952119)"><g><path d="M 0.421875 0 L 0.421875 -5.0625 L 1.859375 -5.0625 L 1.859375 -3.15625 L 3.65625 -3.15625 L 3.65625 -5.0625 L 5.09375 -5.0625 L 5.09375 0 L 3.65625 0 L 3.65625 -1.921875 L 1.859375 -1.921875 L 1.859375 0 Z M 0.421875 0 "/></g></g></g><g fill="#000000" fill-opacity="1"><g transform="translate(196.528838, 123.952119)"><g><path d="M 5.078125 -1 C 4.859375 -0.65625 4.554688 -0.390625 4.171875 -0.203125 C 3.796875 -0.015625 3.375 0.078125 2.90625 0.078125 C 2.332031 0.078125 1.84375 -0.0195312 1.4375 -0.21875 C 1.03125 -0.414062 0.71875 -0.703125 0.5 -1.078125 C 0.289062 -1.453125 0.1875 -1.898438 0.1875 -2.421875 C 0.1875 -2.960938 0.300781 -3.4375 0.53125 -3.84375 C 0.769531 -4.25 1.101562 -4.5625 1.53125 -4.78125 C 1.957031 -5.007812 2.445312 -5.125 3 -5.125 C 3.5 -5.125 3.914062 -5.035156 4.25 -4.859375 C 4.59375 -4.691406 4.867188 -4.425781 5.078125 -4.0625 L 4 -3.3125 C 3.914062 -3.476562 3.773438 -3.613281 3.578125 -3.71875 C 3.390625 -3.820312 3.179688 -3.875 2.953125 -3.875 C 2.535156 -3.882812 2.210938 -3.753906 1.984375 -3.484375 C 1.753906 -3.222656 1.640625 -2.878906 1.640625 -2.453125 C 1.640625 -2.054688 1.742188 -1.742188 1.953125 -1.515625 C 2.160156 -1.285156 2.484375 -1.171875 2.921875 -1.171875 C 3.410156 -1.171875 3.78125 -1.382812 4.03125 -1.8125 Z M 5.078125 -1 "/></g></g></g><g fill="#000000" fill-opacity="1"><g transform="translate(204.504656, 123.952119)"><g><path d="M -0.28125 0 L 1.953125 -5.0625 L 3.140625 -5.0625 L 5.28125 0 L 3.84375 0 L 3.484375 -0.90625 L 1.53125 -0.90625 L 1.15625 0 Z M 2.015625 -2.078125 L 3.015625 -2.078125 L 2.53125 -3.3125 Z M 2.015625 -2.078125 "/></g></g></g><g fill="#000000" fill-opacity="1"><g transform="translate(212.580249, 123.952119)"><g><path d="M 4.890625 -1.3125 L 5.21875 -0.21875 C 5.101562 -0.125 4.945312 -0.0507812 4.75 0 C 4.5625 0.0507812 4.375 0.078125 4.1875 0.078125 C 3.8125 0.078125 3.5 0.0078125 3.25 -0.125 C 3 -0.257812 2.800781 -0.453125 2.65625 -0.703125 L 2.1875 -1.5 C 2.125 -1.59375 2.066406 -1.660156 2.015625 -1.703125 C 1.960938 -1.753906 1.898438 -1.785156 1.828125 -1.796875 L 1.828125 0 L 0.421875 0 L 0.421875 -5.0625 L 2.140625 -5.0625 C 2.921875 -5.0625 3.492188 -4.910156 3.859375 -4.609375 C 4.234375 -4.316406 4.421875 -3.910156 4.421875 -3.390625 C 4.421875 -3.015625 4.3125 -2.707031 4.09375 -2.46875 C 3.882812 -2.226562 3.601562 -2.054688 3.25 -1.953125 C 3.4375 -1.890625 3.582031 -1.78125 3.6875 -1.625 L 3.8125 -1.4375 C 3.925781 -1.25 4.109375 -1.15625 4.359375 -1.15625 C 4.453125 -1.15625 4.539062 -1.164062 4.625 -1.1875 C 4.71875 -1.207031 4.804688 -1.25 4.890625 -1.3125 Z M 2.125 -3.90625 L 1.828125 -3.90625 L 1.828125 -2.90625 L 2.1875 -2.90625 C 2.5 -2.90625 2.710938 -2.945312 2.828125 -3.03125 C 2.953125 -3.113281 3.015625 -3.242188 3.015625 -3.421875 C 3.015625 -3.609375 2.929688 -3.734375 2.765625 -3.796875 C 2.597656 -3.867188 2.382812 -3.90625 2.125 -3.90625 Z M 2.125 -3.90625 "/></g></g></g><g fill="#000000" fill-opacity="1"><g transform="translate(220.506188, 123.952119)"><g><path d="M 0.421875 0 L 0.421875 -5.0625 L 2.203125 -5.0625 C 3.210938 -5.0625 3.972656 -4.847656 4.484375 -4.421875 C 5.003906 -3.992188 5.265625 -3.363281 5.265625 -2.53125 C 5.265625 -2.164062 5.195312 -1.828125 5.0625 -1.515625 C 4.9375 -1.210938 4.75 -0.945312 4.5 -0.71875 C 4.257812 -0.488281 3.972656 -0.3125 3.640625 -0.1875 C 3.316406 -0.0625 2.960938 0 2.578125 0 Z M 1.859375 -1.25 L 2.46875 -1.25 C 2.925781 -1.25 3.269531 -1.351562 3.5 -1.5625 C 3.726562 -1.78125 3.84375 -2.09375 3.84375 -2.5 C 3.84375 -2.945312 3.71875 -3.273438 3.46875 -3.484375 C 3.226562 -3.703125 2.851562 -3.8125 2.34375 -3.8125 L 1.859375 -3.8125 Z M 1.859375 -1.25 "/></g></g></g><g fill="#000000" fill-opacity="1"><g transform="translate(229.00936, 123.952119)"><g><path d="M 2.125 0.078125 C 1.488281 0.078125 0.992188 -0.0546875 0.640625 -0.328125 C 0.285156 -0.597656 0.0820312 -0.992188 0.03125 -1.515625 L 1.359375 -1.703125 C 1.367188 -1.523438 1.445312 -1.378906 1.59375 -1.265625 C 1.738281 -1.160156 1.929688 -1.109375 2.171875 -1.109375 C 2.609375 -1.109375 2.828125 -1.222656 2.828125 -1.453125 C 2.828125 -1.554688 2.765625 -1.640625 2.640625 -1.703125 C 2.523438 -1.765625 2.328125 -1.828125 2.046875 -1.890625 C 1.460938 -2.035156 1.03125 -2.226562 0.75 -2.46875 C 0.476562 -2.707031 0.34375 -3.039062 0.34375 -3.46875 C 0.351562 -3.800781 0.441406 -4.085938 0.609375 -4.328125 C 0.773438 -4.578125 1.007812 -4.769531 1.3125 -4.90625 C 1.625 -5.050781 1.988281 -5.125 2.40625 -5.125 C 2.90625 -5.125 3.320312 -4.992188 3.65625 -4.734375 C 3.988281 -4.484375 4.175781 -4.140625 4.21875 -3.703125 L 2.984375 -3.484375 C 2.953125 -3.617188 2.875 -3.726562 2.75 -3.8125 C 2.632812 -3.90625 2.492188 -3.953125 2.328125 -3.953125 C 2.160156 -3.953125 2.023438 -3.921875 1.921875 -3.859375 C 1.828125 -3.796875 1.78125 -3.707031 1.78125 -3.59375 C 1.78125 -3.5 1.828125 -3.414062 1.921875 -3.34375 C 2.023438 -3.269531 2.210938 -3.195312 2.484375 -3.125 C 2.878906 -3.03125 3.207031 -2.921875 3.46875 -2.796875 C 3.726562 -2.679688 3.925781 -2.523438 4.0625 -2.328125 C 4.195312 -2.140625 4.265625 -1.894531 4.265625 -1.59375 C 4.265625 -1.257812 4.175781 -0.96875 4 -0.71875 C 3.820312 -0.46875 3.570312 -0.269531 3.25 -0.125 C 2.925781 0.0078125 2.550781 0.078125 2.125 0.078125 Z M 2.125 0.078125 "/></g></g></g></svg>