<svg xmlns="http://www.w3.org/2000/svg" xmlns:xlink="http://www.w3.org/1999/xlink" width="432" zoomAndPan="magnify" viewBox="0 0 324 182.249993" height="243" preserveAspectRatio="xMidYMid meet" version="1.0"><defs><g/><clipPath id="5d691f464c"><path d="M 0.664062 0 L 323.335938 0 L 323.335938 181.503906 L 0.664062 181.503906 Z M 0.664062 0 " clip-rule="nonzero"/></clipPath><clipPath id="9df6b6f52d"><path d="M 105.335938 34.050781 L 218.867188 34.050781 L 218.867188 147.585938 L 105.335938 147.585938 Z M 105.335938 34.050781 " clip-rule="nonzero"/></clipPath><clipPath id="b249ebbd47"><path d="M 146 54.648438 L 162 54.648438 L 162 91.996094 L 146 91.996094 Z M 146 54.648438 " clip-rule="nonzero"/></clipPath><clipPath id="7e78153c55"><path d="M 143 59 L 162 59 L 162 91.996094 L 143 91.996094 Z M 143 59 " clip-rule="nonzero"/></clipPath><clipPath id="08d58283ec"><path d="M 139.839844 63 L 162 63 L 162 91.996094 L 139.839844 91.996094 Z M 139.839844 63 " clip-rule="nonzero"/></clipPath><clipPath id="2c1bfe1f8f"><path d="M 161 54.648438 L 177 54.648438 L 177 91.996094 L 161 91.996094 Z M 161 54.648438 " clip-rule="nonzero"/></clipPath><clipPath id="14b546449c"><path d="M 161 59 L 181 59 L 181 91.996094 L 161 91.996094 Z M 161 59 " clip-rule="nonzero"/></clipPath><clipPath id="56bdc7a680"><path d="M 161 63 L 183.90625 63 L 183.90625 91.996094 L 161 91.996094 Z M 161 63 " clip-rule="nonzero"/></clipPath><clipPath id="a5707d554e"><path d="M 106 99.546875 L 218 99.546875 L 218 129 L 106 129 Z M 106 99.546875 " clip-rule="nonzero"/></clipPath><clipPath id="ce892a0d4e"><path d="M 200 119 L 241.492188 119 L 241.492188 148.097656 L 200 148.097656 Z M 200 119 " clip-rule="nonzero"/></clipPath><clipPath id="d0501e10cb"><path d="M 82.398438 119 L 124 119 L 124 148.097656 L 82.398438 148.097656 Z M 82.398438 119 " clip-rule="nonzero"/></clipPath><clipPath id="9dc14b2539"><path d="M 136.445312 126.136719 L 143.167969 126.136719 L 143.167969 132.113281 L 136.445312 132.113281 Z M 136.445312 126.136719 " clip-rule="nonzero"/></clipPath><clipPath id="ba76e84625"><path d="M 180.867188 126.136719 L 187.589844 126.136719 L 187.589844 132.113281 L 180.867188 132.113281 Z M 180.867188 126.136719 " clip-rule="nonzero"/></clipPath></defs><g clip-path="url(#5d691f464c)"><path fill="#ffffff" d="M 0.664062 0 L 323.335938 0 L 323.335938 188.972656 L 0.664062 188.972656 Z M 0.664062 0 " fill-opacity="1" fill-rule="nonzero"/><path fill="#ffffff" d="M 0.664062 0 L 323.335938 0 L 323.335938 181.503906 L 0.664062 181.503906 Z M 0.664062 0 " fill-opacity="1" fill-rule="nonzero"/><path fill="#004aad" d="M 0.664062 0 L 323.335938 0 L 323.335938 181.503906 L 0.664062 181.503906 Z M 0.664062 0 " fill-opacity="1" fill-rule="nonzero"/></g><g clip-path="url(#9df6b6f52d)"><path fill="#f4bc33" d="M 161.964844 36.628906 L 172.480469 47.765625 L 173.234375 48.558594 L 174.277344 48.25 L 189.078125 43.824219 L 192.621094 58.722656 L 192.867188 59.785156 L 193.929688 60.035156 L 208.960938 63.601562 L 204.578125 78.277344 L 204.269531 79.324219 L 205.066406 80.074219 L 216.300781 90.679688 L 205.164062 101.195312 L 204.367188 101.949219 L 204.675781 102.996094 L 209.101562 117.796875 L 194.203125 121.335938 L 193.140625 121.585938 L 192.894531 122.648438 L 189.328125 137.679688 L 174.648438 133.296875 L 173.605469 132.984375 L 172.851562 133.78125 L 162.246094 145.015625 L 151.730469 133.878906 L 150.976562 133.082031 L 149.933594 133.394531 L 135.132812 137.820312 L 131.589844 122.921875 L 131.34375 121.859375 L 130.28125 121.609375 L 115.25 118.042969 L 119.632812 103.367188 L 119.941406 102.320312 L 119.144531 101.570312 L 107.910156 90.945312 L 119.046875 80.429688 L 119.84375 79.675781 L 119.535156 78.632812 L 115.109375 63.832031 L 130.007812 60.289062 L 131.070312 60.042969 L 131.316406 58.980469 L 134.882812 43.949219 L 149.5625 48.332031 L 150.605469 48.640625 L 151.359375 47.84375 L 161.964844 36.628906 M 161.964844 34.050781 L 150.074219 46.648438 L 133.601562 41.726562 L 129.597656 58.574219 L 112.878906 62.546875 L 117.835938 79.144531 L 105.335938 90.945312 L 117.933594 102.835938 L 113.011719 119.308594 L 129.863281 123.3125 L 133.839844 140.03125 L 150.4375 135.074219 L 162.238281 147.574219 L 174.128906 134.976562 L 190.601562 139.898438 L 194.601562 123.046875 L 211.324219 119.070312 L 206.367188 102.472656 L 218.867188 90.671875 L 206.269531 78.78125 L 211.191406 62.308594 L 194.335938 58.308594 L 190.363281 41.59375 L 173.765625 46.550781 Z M 161.964844 34.050781 " fill-opacity="1" fill-rule="nonzero"/></g><g clip-path="url(#b249ebbd47)"><path fill="#f4bc33" d="M 161.871094 63.484375 C 161.871094 63.484375 155.730469 55.644531 146.925781 54.648438 L 146.925781 82.359375 C 146.925781 82.359375 159.667969 85.484375 161.871094 91.996094 Z M 161.871094 63.484375 " fill-opacity="1" fill-rule="nonzero"/></g><g clip-path="url(#7e78153c55)"><path fill="#f4bc33" d="M 145.523438 59.632812 L 143.589844 59.632812 L 143.589844 86.082031 C 143.589844 86.082031 157.933594 88.140625 161.871094 91.996094 C 161.871094 91.996094 157.667969 87.34375 145.589844 85.085938 Z M 145.523438 59.632812 " fill-opacity="1" fill-rule="nonzero"/></g><g clip-path="url(#08d58283ec)"><path fill="#f4bc33" d="M 141.457031 63.355469 L 141.457031 87.945312 C 141.457031 87.945312 157.738281 89.140625 161.875 92 C 161.875 92 145.863281 88.65625 139.859375 89.097656 L 139.859375 63.355469 Z M 141.457031 63.355469 " fill-opacity="1" fill-rule="nonzero"/></g><g clip-path="url(#2c1bfe1f8f)"><path fill="#f4bc33" d="M 161.871094 63.484375 C 161.871094 63.484375 168.011719 55.644531 176.820312 54.648438 L 176.820312 82.359375 C 176.820312 82.359375 164.074219 85.484375 161.871094 91.996094 Z M 161.871094 63.484375 " fill-opacity="1" fill-rule="nonzero"/></g><g clip-path="url(#14b546449c)"><path fill="#f4bc33" d="M 178.21875 59.632812 L 180.152344 59.632812 L 180.152344 86.082031 C 180.152344 86.082031 165.808594 88.140625 161.871094 91.996094 C 161.871094 91.996094 166.074219 87.34375 178.152344 85.085938 Z M 178.21875 59.632812 " fill-opacity="1" fill-rule="nonzero"/></g><g clip-path="url(#56bdc7a680)"><path fill="#f4bc33" d="M 182.289062 63.355469 L 182.289062 87.945312 C 182.289062 87.945312 166.007812 89.140625 161.871094 92 C 161.871094 92 177.882812 88.65625 183.890625 89.097656 L 183.890625 63.355469 Z M 182.289062 63.355469 " fill-opacity="1" fill-rule="nonzero"/></g><g clip-path="url(#a5707d554e)"><path fill="#ffffff" d="M 118.433594 127.015625 L 119.03125 126.824219 C 120.511719 126.351562 121.964844 125.914062 123.351562 125.519531 L 123.679688 125.429688 L 123.914062 125.863281 L 123.84375 125.382812 L 124.6875 125.148438 L 124.691406 125.152344 C 136.761719 121.867188 149.285156 120.195312 161.921875 120.195312 C 174.53125 120.195312 187.03125 121.859375 199.078125 125.132812 L 200.488281 125.523438 C 201.898438 125.921875 203.355469 126.359375 204.824219 126.828125 L 205.394531 127.011719 C 206.863281 127.488281 208.09375 127.902344 209.222656 128.300781 L 217.273438 109.078125 C 199.554688 102.777344 180.933594 99.582031 161.917969 99.582031 C 142.90625 99.582031 124.285156 102.777344 106.566406 109.078125 L 114.617188 128.300781 C 115.765625 127.894531 117.015625 127.472656 118.433594 127.015625 " fill-opacity="1" fill-rule="nonzero"/></g><path fill="#ffffff" d="M 204.117188 128.648438 L 203.984375 128.605469 C 202.785156 128.222656 201.578125 127.863281 200.371094 127.519531 L 198.742188 132.570312 C 201.34375 131.46875 204.019531 130.441406 206.730469 129.507812 C 205.859375 129.210938 204.992188 128.925781 204.117188 128.648438 " fill-opacity="1" fill-rule="nonzero"/><g clip-path="url(#ce892a0d4e)"><path fill="#ffffff" d="M 210.308594 130.765625 L 209.75 130.5625 C 206.496094 131.609375 203.230469 132.8125 200.03125 134.160156 C 210.925781 137.4375 221.242188 142.089844 230.738281 148.007812 C 229.765625 143.914062 228.53125 139.804688 227.066406 135.773438 L 226.664062 134.679688 L 227.816406 134.480469 C 232.273438 133.707031 236.855469 133.160156 241.460938 132.851562 C 233.132812 127.683594 224.199219 123.324219 214.867188 119.875 L 210.308594 130.765625 " fill-opacity="1" fill-rule="nonzero"/></g><g clip-path="url(#d0501e10cb)"><path fill="#ffffff" d="M 97.175781 134.679688 L 96.773438 135.773438 C 95.3125 139.800781 94.078125 143.90625 93.105469 148.007812 C 102.601562 142.089844 112.917969 137.4375 123.8125 134.160156 C 120.609375 132.8125 117.34375 131.605469 114.09375 130.5625 L 113.53125 130.765625 L 108.972656 119.875 C 99.640625 123.324219 90.707031 127.683594 82.378906 132.851562 C 86.984375 133.160156 91.566406 133.707031 96.023438 134.480469 L 97.175781 134.679688 " fill-opacity="1" fill-rule="nonzero"/></g><path fill="#ffffff" d="M 119.867188 128.601562 L 119.691406 128.660156 C 118.828125 128.929688 117.96875 129.21875 117.113281 129.507812 C 119.820312 130.441406 122.496094 131.464844 125.097656 132.570312 L 123.472656 127.519531 C 122.234375 127.871094 121.046875 128.226562 119.867188 128.601562 " fill-opacity="1" fill-rule="nonzero"/><g clip-path="url(#9dc14b2539)"><path fill="#f4bc33" d="M 139.804688 126.136719 L 140.671875 127.957031 C 140.703125 128.027344 140.753906 128.085938 140.820312 128.132812 C 140.886719 128.175781 140.964844 128.203125 141.046875 128.210938 L 143.164062 128.417969 L 141.582031 129.75 C 141.519531 129.800781 141.476562 129.867188 141.449219 129.941406 C 141.425781 130.011719 141.421875 130.089844 141.4375 130.164062 L 141.882812 132.113281 L 140.039062 131.117188 C 139.96875 131.078125 139.886719 131.058594 139.804688 131.058594 C 139.722656 131.058594 139.644531 131.078125 139.570312 131.117188 L 137.730469 132.113281 L 138.171875 130.164062 C 138.1875 130.089844 138.183594 130.011719 138.160156 129.941406 C 138.132812 129.867188 138.089844 129.800781 138.027344 129.75 L 136.445312 128.417969 L 138.5625 128.210938 C 138.644531 128.203125 138.722656 128.175781 138.789062 128.132812 C 138.855469 128.085938 138.90625 128.027344 138.941406 127.957031 Z M 139.804688 126.136719 " fill-opacity="1" fill-rule="evenodd"/></g><g clip-path="url(#ba76e84625)"><path fill="#f4bc33" d="M 184.230469 126.136719 L 185.09375 127.957031 C 185.128906 128.027344 185.179688 128.085938 185.246094 128.132812 C 185.3125 128.175781 185.390625 128.203125 185.46875 128.210938 L 187.585938 128.417969 L 186.003906 129.75 C 185.945312 129.800781 185.898438 129.867188 185.875 129.941406 C 185.847656 130.011719 185.84375 130.089844 185.859375 130.164062 L 186.304688 132.113281 L 184.460938 131.117188 C 184.390625 131.078125 184.308594 131.058594 184.230469 131.058594 C 184.148438 131.058594 184.066406 131.078125 183.996094 131.117188 L 182.152344 132.113281 L 182.597656 130.164062 C 182.613281 130.089844 182.609375 130.011719 182.582031 129.941406 C 182.558594 129.867188 182.511719 129.800781 182.453125 129.75 L 180.871094 128.417969 L 182.988281 128.210938 C 183.066406 128.203125 183.144531 128.175781 183.210938 128.132812 C 183.277344 128.085938 183.332031 128.027344 183.363281 127.957031 Z M 184.230469 126.136719 " fill-opacity="1" fill-rule="evenodd"/></g><g fill="#004aad" fill-opacity="1"><g transform="translate(113.137077, 120.535106)"><g><path d="M 2.625 -0.90625 C 2.195312 -0.75 1.789062 -0.675781 1.40625 -0.6875 C 1.03125 -0.695312 0.6875 -0.800781 0.375 -1 C 0.0703125 -1.207031 -0.148438 -1.488281 -0.296875 -1.84375 L 1.203125 -2.40625 C 1.304688 -2.207031 1.441406 -2.070312 1.609375 -2 C 1.773438 -1.9375 1.957031 -1.941406 2.15625 -2.015625 C 2.363281 -2.097656 2.507812 -2.210938 2.59375 -2.359375 C 2.6875 -2.503906 2.703125 -2.664062 2.640625 -2.84375 C 2.585938 -2.976562 2.492188 -3.070312 2.359375 -3.125 C 2.222656 -3.1875 2.070312 -3.222656 1.90625 -3.234375 C 1.75 -3.242188 1.53125 -3.238281 1.25 -3.21875 C 0.820312 -3.195312 0.46875 -3.195312 0.1875 -3.21875 C -0.0820312 -3.238281 -0.34375 -3.328125 -0.59375 -3.484375 C -0.851562 -3.648438 -1.054688 -3.921875 -1.203125 -4.296875 C -1.398438 -4.828125 -1.359375 -5.316406 -1.078125 -5.765625 C -0.804688 -6.222656 -0.359375 -6.566406 0.265625 -6.796875 C 0.910156 -7.046875 1.484375 -7.085938 1.984375 -6.921875 C 2.492188 -6.765625 2.867188 -6.421875 3.109375 -5.890625 L 1.5625 -5.3125 C 1.488281 -5.488281 1.363281 -5.601562 1.1875 -5.65625 C 1.019531 -5.71875 0.835938 -5.710938 0.640625 -5.640625 C 0.472656 -5.578125 0.351562 -5.484375 0.28125 -5.359375 C 0.21875 -5.242188 0.21875 -5.097656 0.28125 -4.921875 C 0.351562 -4.734375 0.492188 -4.617188 0.703125 -4.578125 C 0.921875 -4.535156 1.234375 -4.523438 1.640625 -4.546875 C 2.078125 -4.554688 2.429688 -4.546875 2.703125 -4.515625 C 2.984375 -4.492188 3.25 -4.398438 3.5 -4.234375 C 3.75 -4.078125 3.941406 -3.828125 4.078125 -3.484375 C 4.203125 -3.160156 4.226562 -2.832031 4.15625 -2.5 C 4.09375 -2.164062 3.929688 -1.859375 3.671875 -1.578125 C 3.410156 -1.296875 3.0625 -1.070312 2.625 -0.90625 Z M 2.625 -0.90625 "/></g></g></g><g fill="#004aad" fill-opacity="1"><g transform="translate(118.087775, 118.660072)"><g><path d="M -0.671875 -3.046875 C -0.859375 -3.617188 -0.898438 -4.171875 -0.796875 -4.703125 C -0.703125 -5.242188 -0.46875 -5.710938 -0.09375 -6.109375 C 0.269531 -6.503906 0.738281 -6.796875 1.3125 -6.984375 C 2.007812 -7.210938 2.664062 -7.222656 3.28125 -7.015625 C 3.894531 -6.816406 4.390625 -6.425781 4.765625 -5.84375 L 3.171875 -5.328125 C 2.984375 -5.546875 2.757812 -5.679688 2.5 -5.734375 C 2.25 -5.785156 1.988281 -5.769531 1.71875 -5.6875 C 1.28125 -5.539062 0.972656 -5.269531 0.796875 -4.875 C 0.617188 -4.476562 0.613281 -4.023438 0.78125 -3.515625 C 0.945312 -3.003906 1.21875 -2.640625 1.59375 -2.421875 C 1.96875 -2.203125 2.375 -2.164062 2.8125 -2.3125 C 3.082031 -2.394531 3.304688 -2.535156 3.484375 -2.734375 C 3.660156 -2.941406 3.757812 -3.175781 3.78125 -3.4375 L 5.375 -3.953125 C 5.414062 -3.273438 5.242188 -2.671875 4.859375 -2.140625 C 4.484375 -1.609375 3.945312 -1.226562 3.25 -1 C 2.675781 -0.8125 2.125 -0.773438 1.59375 -0.890625 C 1.0625 -1.003906 0.597656 -1.242188 0.203125 -1.609375 C -0.191406 -1.984375 -0.484375 -2.460938 -0.671875 -3.046875 Z M -0.671875 -3.046875 "/></g></g></g><g fill="#004aad" fill-opacity="1"><g transform="translate(124.344027, 116.629538)"><g><path d="M 4.078125 -7.515625 L 5.703125 -1.546875 L 4.234375 -1.15625 L 3.5625 -3.609375 L 1.296875 -2.984375 L 1.96875 -0.53125 L 0.53125 -0.140625 L -1.09375 -6.109375 L 0.34375 -6.5 L 0.984375 -4.171875 L 3.25 -4.796875 L 2.609375 -7.125 Z M 4.078125 -7.515625 "/></g></g></g><g fill="#004aad" fill-opacity="1"><g transform="translate(130.42404, 114.968466)"><g><path d="M 3.40625 -0.6875 C 2.832031 -0.5625 2.28125 -0.578125 1.75 -0.734375 C 1.21875 -0.898438 0.765625 -1.1875 0.390625 -1.59375 C 0.015625 -2.007812 -0.238281 -2.507812 -0.375 -3.09375 C -0.5 -3.6875 -0.476562 -4.25 -0.3125 -4.78125 C -0.144531 -5.320312 0.144531 -5.773438 0.5625 -6.140625 C 0.976562 -6.515625 1.472656 -6.765625 2.046875 -6.890625 C 2.617188 -7.015625 3.164062 -6.992188 3.6875 -6.828125 C 4.21875 -6.660156 4.671875 -6.367188 5.046875 -5.953125 C 5.429688 -5.546875 5.6875 -5.046875 5.8125 -4.453125 C 5.945312 -3.867188 5.925781 -3.304688 5.75 -2.765625 C 5.582031 -2.234375 5.289062 -1.785156 4.875 -1.421875 C 4.46875 -1.054688 3.976562 -0.8125 3.40625 -0.6875 Z M 3.109375 -2.03125 C 3.597656 -2.132812 3.953125 -2.378906 4.171875 -2.765625 C 4.390625 -3.148438 4.4375 -3.601562 4.3125 -4.125 C 4.195312 -4.664062 3.960938 -5.0625 3.609375 -5.3125 C 3.253906 -5.570312 2.832031 -5.648438 2.34375 -5.546875 C 1.851562 -5.429688 1.492188 -5.179688 1.265625 -4.796875 C 1.046875 -4.421875 0.992188 -3.960938 1.109375 -3.421875 C 1.234375 -2.898438 1.472656 -2.507812 1.828125 -2.25 C 2.191406 -1.988281 2.617188 -1.914062 3.109375 -2.03125 Z M 3.109375 -2.03125 "/></g></g></g><g fill="#004aad" fill-opacity="1"><g transform="translate(137.048245, 113.513297)"><g><path d="M 3.4375 -0.5 C 2.863281 -0.40625 2.3125 -0.453125 1.78125 -0.640625 C 1.257812 -0.828125 0.820312 -1.132812 0.46875 -1.5625 C 0.113281 -2 -0.113281 -2.515625 -0.21875 -3.109375 C -0.3125 -3.710938 -0.257812 -4.273438 -0.0625 -4.796875 C 0.132812 -5.316406 0.445312 -5.75 0.875 -6.09375 C 1.3125 -6.445312 1.816406 -6.671875 2.390625 -6.765625 C 2.960938 -6.867188 3.507812 -6.820312 4.03125 -6.625 C 4.5625 -6.4375 5.003906 -6.128906 5.359375 -5.703125 C 5.710938 -5.273438 5.9375 -4.757812 6.03125 -4.15625 C 6.132812 -3.5625 6.085938 -3 5.890625 -2.46875 C 5.691406 -1.945312 5.375 -1.515625 4.9375 -1.171875 C 4.507812 -0.828125 4.007812 -0.601562 3.4375 -0.5 Z M 3.203125 -1.859375 C 3.691406 -1.941406 4.054688 -2.171875 4.296875 -2.546875 C 4.546875 -2.921875 4.625 -3.375 4.53125 -3.90625 C 4.445312 -4.457031 4.226562 -4.863281 3.875 -5.125 C 3.53125 -5.394531 3.113281 -5.488281 2.625 -5.40625 C 2.132812 -5.320312 1.765625 -5.097656 1.515625 -4.734375 C 1.273438 -4.367188 1.195312 -3.910156 1.28125 -3.359375 C 1.375 -2.828125 1.59375 -2.421875 1.9375 -2.140625 C 2.289062 -1.867188 2.710938 -1.773438 3.203125 -1.859375 Z M 3.203125 -1.859375 "/></g></g></g><g fill="#004aad" fill-opacity="1"><g transform="translate(143.768623, 112.42423)"><g><path d="M 1.890625 -1.390625 L 3.859375 -1.640625 L 4 -0.5 L 0.546875 -0.0625 L -0.21875 -6.203125 L 1.265625 -6.390625 Z M 1.890625 -1.390625 "/></g></g></g><g fill="#004aad" fill-opacity="1"><g transform="translate(147.876997, 111.927714)"><g/></g></g><g fill="#004aad" fill-opacity="1"><g transform="translate(149.630346, 111.690761)"><g><path d="M 7.140625 -6.65625 L 7.53125 -0.484375 L 6.03125 -0.390625 L 5.796875 -4.09375 L 4.640625 -0.296875 L 3.453125 -0.21875 L 1.8125 -3.84375 L 2.046875 -0.125 L 0.546875 -0.03125 L 0.15625 -6.203125 L 1.9375 -6.328125 L 3.921875 -2.171875 L 5.375 -6.546875 Z M 7.140625 -6.65625 "/></g></g></g><g fill="#004aad" fill-opacity="1"><g transform="translate(157.551722, 111.200909)"><g><path d="M 4.375 -1.140625 L 2.078125 -1.109375 L 1.71875 -0.015625 L 0.140625 0 L 2.3125 -6.21875 L 4.0625 -6.234375 L 6.359375 -0.0625 L 4.765625 -0.046875 Z M 4 -2.296875 L 3.203125 -4.546875 L 2.46875 -2.28125 Z M 4 -2.296875 "/></g></g></g><g fill="#004aad" fill-opacity="1"><g transform="translate(163.909256, 111.132408)"><g><path d="M 6.078125 0.234375 L 4.578125 0.171875 L 2.1875 -3.734375 L 2.046875 0.078125 L 0.546875 0.015625 L 0.78125 -6.171875 L 2.28125 -6.109375 L 4.671875 -2.1875 L 4.8125 -6.015625 L 6.3125 -5.953125 Z M 6.078125 0.234375 "/></g></g></g><g fill="#004aad" fill-opacity="1"><g transform="translate(170.394375, 111.380968)"><g><path d="M 4.46875 -0.71875 L 2.171875 -0.90625 L 1.71875 0.15625 L 0.140625 0.015625 L 2.890625 -5.953125 L 4.640625 -5.796875 L 6.328125 0.546875 L 4.75 0.421875 Z M 4.203125 -1.890625 L 3.625 -4.21875 L 2.671875 -2.015625 Z M 4.203125 -1.890625 "/></g></g></g><g fill="#004aad" fill-opacity="1"><g transform="translate(176.727868, 111.927954)"><g><path d="M 5.1875 -3.5625 C 5.09375 -3.769531 4.953125 -3.941406 4.765625 -4.078125 C 4.578125 -4.222656 4.34375 -4.3125 4.0625 -4.34375 C 3.570312 -4.414062 3.160156 -4.3125 2.828125 -4.03125 C 2.503906 -3.757812 2.304688 -3.359375 2.234375 -2.828125 C 2.160156 -2.265625 2.25 -1.800781 2.5 -1.4375 C 2.757812 -1.070312 3.160156 -0.851562 3.703125 -0.78125 C 4.066406 -0.726562 4.382812 -0.78125 4.65625 -0.9375 C 4.9375 -1.09375 5.164062 -1.335938 5.34375 -1.671875 L 3.4375 -1.9375 L 3.578125 -3.03125 L 6.828125 -2.578125 L 6.640625 -1.203125 C 6.472656 -0.847656 6.238281 -0.53125 5.9375 -0.25 C 5.632812 0.03125 5.265625 0.242188 4.828125 0.390625 C 4.398438 0.546875 3.929688 0.585938 3.421875 0.515625 C 2.816406 0.429688 2.289062 0.222656 1.84375 -0.109375 C 1.40625 -0.453125 1.085938 -0.875 0.890625 -1.375 C 0.691406 -1.875 0.632812 -2.425781 0.71875 -3.03125 C 0.800781 -3.632812 1.003906 -4.15625 1.328125 -4.59375 C 1.648438 -5.039062 2.066406 -5.359375 2.578125 -5.546875 C 3.085938 -5.742188 3.644531 -5.800781 4.25 -5.71875 C 4.976562 -5.625 5.570312 -5.363281 6.03125 -4.9375 C 6.488281 -4.519531 6.753906 -3.984375 6.828125 -3.328125 Z M 5.1875 -3.5625 "/></g></g></g><g fill="#004aad" fill-opacity="1"><g transform="translate(183.258015, 112.839699)"><g><path d="M 2.90625 -4.546875 L 2.671875 -3.3125 L 4.671875 -2.953125 L 4.46875 -1.796875 L 2.46875 -2.15625 L 2.234375 -0.828125 L 4.484375 -0.421875 L 4.265625 0.765625 L 0.53125 0.09375 L 1.625 -6 L 5.359375 -5.328125 L 5.15625 -4.140625 Z M 2.90625 -4.546875 "/></g></g></g><g fill="#004aad" fill-opacity="1"><g transform="translate(187.827936, 113.620815)"><g><path d="M 8.75 -4.34375 L 7.359375 1.6875 L 5.890625 1.359375 L 6.71875 -2.25 L 4.53125 1.046875 L 3.359375 0.78125 L 2.828125 -3.171875 L 2 0.453125 L 0.53125 0.125 L 1.921875 -5.90625 L 3.65625 -5.515625 L 4.375 -0.953125 L 7.03125 -4.734375 Z M 8.75 -4.34375 "/></g></g></g><g fill="#004aad" fill-opacity="1"><g transform="translate(195.570331, 115.438444)"><g><path d="M 3.3125 -4.25 L 2.984375 -3.046875 L 4.9375 -2.484375 L 4.609375 -1.359375 L 2.65625 -1.921875 L 2.296875 -0.609375 L 4.5 0.015625 L 4.171875 1.171875 L 0.53125 0.140625 L 2.203125 -5.8125 L 5.84375 -4.78125 L 5.515625 -3.625 Z M 3.3125 -4.25 "/></g></g></g><g fill="#004aad" fill-opacity="1"><g transform="translate(200.053147, 116.673123)"><g><path d="M 5.78125 1.890625 L 4.359375 1.421875 L 3.140625 -2.984375 L 1.953125 0.640625 L 0.515625 0.171875 L 2.4375 -5.703125 L 3.875 -5.234375 L 5.09375 -0.828125 L 6.28125 -4.453125 L 7.703125 -3.984375 Z M 5.78125 1.890625 "/></g></g></g><g fill="#004aad" fill-opacity="1"><g transform="translate(206.229771, 118.704551)"><g><path d="M 6.859375 -4.03125 L 6.4375 -2.90625 L 4.890625 -3.484375 L 3.140625 1.1875 L 1.71875 0.65625 L 3.46875 -4.015625 L 1.953125 -4.59375 L 2.375 -5.71875 Z M 6.859375 -4.03125 "/></g></g></g><g fill="#004aad" fill-opacity="1"><g transform="translate(145.885956, 130.507102)"><g><path d="M 0.859375 -3.8125 L 1 -2.90625 L 2.421875 -3.15625 L 2.578125 -2.328125 L 1.15625 -2.078125 L 1.3125 -1.109375 L 2.9375 -1.390625 L 3.09375 -0.53125 L 0.390625 -0.0625 L -0.375 -4.46875 L 2.328125 -4.9375 L 2.484375 -4.09375 Z M 0.859375 -3.8125 "/></g></g></g><g fill="#004aad" fill-opacity="1"><g transform="translate(149.190968, 129.927372)"><g><path d="M 2 -0.21875 C 1.675781 -0.175781 1.378906 -0.191406 1.109375 -0.265625 C 0.847656 -0.335938 0.625 -0.46875 0.4375 -0.65625 C 0.257812 -0.84375 0.144531 -1.078125 0.09375 -1.359375 L 1.234375 -1.515625 C 1.273438 -1.347656 1.347656 -1.226562 1.453125 -1.15625 C 1.566406 -1.082031 1.703125 -1.054688 1.859375 -1.078125 C 2.015625 -1.097656 2.132812 -1.148438 2.21875 -1.234375 C 2.300781 -1.316406 2.335938 -1.425781 2.328125 -1.5625 C 2.304688 -1.675781 2.253906 -1.757812 2.171875 -1.8125 C 2.097656 -1.875 2 -1.921875 1.875 -1.953125 C 1.757812 -1.984375 1.601562 -2.019531 1.40625 -2.0625 C 1.09375 -2.113281 0.84375 -2.171875 0.65625 -2.234375 C 0.46875 -2.304688 0.296875 -2.414062 0.140625 -2.5625 C -0.00390625 -2.71875 -0.09375 -2.929688 -0.125 -3.203125 C -0.1875 -3.617188 -0.0820312 -3.960938 0.1875 -4.234375 C 0.457031 -4.515625 0.832031 -4.6875 1.3125 -4.75 C 1.8125 -4.8125 2.222656 -4.742188 2.546875 -4.546875 C 2.867188 -4.347656 3.070312 -4.046875 3.15625 -3.640625 L 1.984375 -3.484375 C 1.953125 -3.628906 1.882812 -3.734375 1.78125 -3.796875 C 1.675781 -3.867188 1.546875 -3.898438 1.390625 -3.890625 C 1.253906 -3.867188 1.148438 -3.816406 1.078125 -3.734375 C 1.003906 -3.648438 0.976562 -3.539062 1 -3.40625 C 1.019531 -3.269531 1.101562 -3.164062 1.25 -3.09375 C 1.394531 -3.03125 1.617188 -2.976562 1.921875 -2.9375 C 2.210938 -2.875 2.453125 -2.8125 2.640625 -2.75 C 2.828125 -2.6875 3 -2.578125 3.15625 -2.421875 C 3.3125 -2.265625 3.40625 -2.050781 3.4375 -1.78125 C 3.46875 -1.53125 3.429688 -1.296875 3.328125 -1.078125 C 3.222656 -0.859375 3.054688 -0.671875 2.828125 -0.515625 C 2.609375 -0.359375 2.332031 -0.257812 2 -0.21875 Z M 2 -0.21875 "/></g></g></g><g fill="#004aad" fill-opacity="1"><g transform="translate(152.981608, 129.433031)"><g><path d="M 3.21875 -4.765625 L 3.28125 -3.90625 L 2.09375 -3.796875 L 2.40625 -0.203125 L 1.34375 -0.109375 L 1.03125 -3.703125 L -0.15625 -3.609375 L -0.21875 -4.46875 Z M 3.21875 -4.765625 "/></g></g></g><g fill="#004aad" fill-opacity="1"><g transform="translate(156.628671, 129.106401)"><g><path d="M 1.90625 -4.546875 C 2.375 -4.566406 2.785156 -4.488281 3.140625 -4.3125 C 3.503906 -4.144531 3.789062 -3.894531 4 -3.5625 C 4.207031 -3.238281 4.320312 -2.851562 4.34375 -2.40625 C 4.351562 -1.96875 4.269531 -1.570312 4.09375 -1.21875 C 3.914062 -0.875 3.648438 -0.601562 3.296875 -0.40625 C 2.941406 -0.207031 2.535156 -0.0976562 2.078125 -0.078125 L 0.390625 -0.015625 L 0.21875 -4.484375 Z M 1.96875 -1.015625 C 2.382812 -1.023438 2.703125 -1.148438 2.921875 -1.390625 C 3.140625 -1.628906 3.242188 -1.953125 3.234375 -2.359375 C 3.210938 -2.773438 3.082031 -3.09375 2.84375 -3.3125 C 2.601562 -3.53125 2.273438 -3.632812 1.859375 -3.625 L 1.34375 -3.609375 L 1.453125 -1 Z M 1.96875 -1.015625 "/></g></g></g><g fill="#004aad" fill-opacity="1"><g transform="translate(161.182491, 128.96054)"><g/></g></g><g fill="#004aad" fill-opacity="1"><g transform="translate(162.471669, 128.938552)"><g><path d="M 0.265625 -0.875 C 0.421875 -0.976562 0.492188 -1.023438 0.484375 -1.015625 C 0.898438 -1.347656 1.234375 -1.625 1.484375 -1.84375 C 1.734375 -2.0625 1.941406 -2.285156 2.109375 -2.515625 C 2.273438 -2.753906 2.359375 -2.988281 2.359375 -3.21875 C 2.367188 -3.394531 2.332031 -3.535156 2.25 -3.640625 C 2.175781 -3.742188 2.054688 -3.796875 1.890625 -3.796875 C 1.734375 -3.804688 1.601562 -3.75 1.5 -3.625 C 1.40625 -3.5 1.359375 -3.328125 1.359375 -3.109375 L 0.3125 -3.140625 C 0.332031 -3.503906 0.414062 -3.800781 0.5625 -4.03125 C 0.71875 -4.269531 0.914062 -4.441406 1.15625 -4.546875 C 1.40625 -4.660156 1.675781 -4.710938 1.96875 -4.703125 C 2.476562 -4.691406 2.851562 -4.554688 3.09375 -4.296875 C 3.34375 -4.035156 3.460938 -3.695312 3.453125 -3.28125 C 3.441406 -2.820312 3.273438 -2.398438 2.953125 -2.015625 C 2.640625 -1.628906 2.242188 -1.257812 1.765625 -0.90625 L 3.484375 -0.875 L 3.453125 0.015625 L 0.25 -0.0625 Z M 0.265625 -0.875 "/></g></g></g><g fill="#004aad" fill-opacity="1"><g transform="translate(166.012181, 129.018183)"><g><path d="M 0.453125 -2.375 C 0.492188 -3.09375 0.671875 -3.648438 0.984375 -4.046875 C 1.304688 -4.453125 1.78125 -4.632812 2.40625 -4.59375 C 3.03125 -4.550781 3.46875 -4.304688 3.71875 -3.859375 C 3.96875 -3.421875 4.070312 -2.84375 4.03125 -2.125 C 3.976562 -1.382812 3.796875 -0.8125 3.484375 -0.40625 C 3.171875 -0.0078125 2.703125 0.164062 2.078125 0.125 C 1.453125 0.0820312 1.007812 -0.15625 0.75 -0.59375 C 0.5 -1.039062 0.398438 -1.632812 0.453125 -2.375 Z M 2.96875 -2.203125 C 2.988281 -2.628906 2.960938 -2.957031 2.890625 -3.1875 C 2.816406 -3.425781 2.632812 -3.554688 2.34375 -3.578125 C 2.050781 -3.597656 1.847656 -3.492188 1.734375 -3.265625 C 1.617188 -3.046875 1.550781 -2.722656 1.53125 -2.296875 C 1.507812 -2.003906 1.503906 -1.765625 1.515625 -1.578125 C 1.535156 -1.390625 1.59375 -1.234375 1.6875 -1.109375 C 1.789062 -0.984375 1.945312 -0.914062 2.15625 -0.90625 C 2.363281 -0.882812 2.519531 -0.925781 2.625 -1.03125 C 2.738281 -1.144531 2.816406 -1.296875 2.859375 -1.484375 C 2.910156 -1.671875 2.945312 -1.910156 2.96875 -2.203125 Z M 2.96875 -2.203125 "/></g></g></g><g fill="#004aad" fill-opacity="1"><g transform="translate(170.059217, 129.302144)"><g><path d="M 0.34375 -0.84375 C 0.507812 -0.945312 0.582031 -0.992188 0.5625 -0.984375 C 1.019531 -1.265625 1.378906 -1.503906 1.640625 -1.703125 C 1.898438 -1.898438 2.125 -2.109375 2.3125 -2.328125 C 2.5 -2.546875 2.609375 -2.769531 2.640625 -3 C 2.660156 -3.175781 2.632812 -3.316406 2.5625 -3.421875 C 2.5 -3.523438 2.382812 -3.585938 2.21875 -3.609375 C 2.0625 -3.628906 1.925781 -3.582031 1.8125 -3.46875 C 1.707031 -3.363281 1.644531 -3.203125 1.625 -2.984375 L 0.59375 -3.09375 C 0.644531 -3.445312 0.753906 -3.734375 0.921875 -3.953125 C 1.097656 -4.179688 1.304688 -4.335938 1.546875 -4.421875 C 1.796875 -4.515625 2.066406 -4.546875 2.359375 -4.515625 C 2.867188 -4.453125 3.238281 -4.28125 3.46875 -4 C 3.695312 -3.71875 3.785156 -3.375 3.734375 -2.96875 C 3.679688 -2.507812 3.476562 -2.097656 3.125 -1.734375 C 2.78125 -1.378906 2.347656 -1.050781 1.828125 -0.75 L 3.546875 -0.5625 L 3.4375 0.328125 L 0.25 -0.03125 Z M 0.34375 -0.84375 "/></g></g></g><g fill="#004aad" fill-opacity="1"><g transform="translate(173.584058, 129.702484)"><g><path d="M 0.390625 -0.828125 C 0.546875 -0.910156 0.617188 -0.953125 0.609375 -0.953125 C 1.066406 -1.222656 1.429688 -1.445312 1.703125 -1.625 C 1.984375 -1.8125 2.21875 -2.007812 2.40625 -2.21875 C 2.601562 -2.4375 2.71875 -2.65625 2.75 -2.875 C 2.78125 -3.050781 2.765625 -3.195312 2.703125 -3.3125 C 2.640625 -3.425781 2.53125 -3.492188 2.375 -3.515625 C 2.21875 -3.546875 2.082031 -3.503906 1.96875 -3.390625 C 1.851562 -3.273438 1.78125 -3.113281 1.75 -2.90625 L 0.71875 -3.078125 C 0.78125 -3.429688 0.898438 -3.710938 1.078125 -3.921875 C 1.265625 -4.140625 1.484375 -4.285156 1.734375 -4.359375 C 1.992188 -4.429688 2.269531 -4.445312 2.5625 -4.40625 C 3.0625 -4.320312 3.414062 -4.132812 3.625 -3.84375 C 3.832031 -3.5625 3.90625 -3.210938 3.84375 -2.796875 C 3.769531 -2.347656 3.550781 -1.953125 3.1875 -1.609375 C 2.832031 -1.273438 2.390625 -0.960938 1.859375 -0.671875 L 3.546875 -0.40625 L 3.421875 0.46875 L 0.265625 -0.03125 Z M 0.390625 -0.828125 "/></g></g></g><g fill="#004aad" fill-opacity="1"><g transform="translate(177.113737, 130.269682)"><g/></g></g></svg>